<svg width="25mm" height="24.998mm" version="1.1" viewBox="0 0 25 24.998" xmlns="http://www.w3.org/2000/svg">
 <g transform="translate(-85.536 -45.068)">
  <path d="m97.47 69.905c-0.17685-0.08716-0.37461-0.25095-0.43946-0.36398-0.08634-0.15052-0.13096-1.6165-0.16672-5.4789l-0.04886-5.2734-5.2734-0.04883c-3.8825-0.03595-5.328-0.08013-5.4804-0.16752-0.23696-0.13588-0.52542-0.68727-0.52542-1.0044 0-0.31708 0.28846-0.86848 0.52542-1.0044 0.1524-0.08739 1.598-0.13157 5.4804-0.16752l5.2734-0.04883 0.04886-5.2734c0.03593-3.8825 0.08014-5.328 0.16752-5.4804 0.13588-0.23696 0.68728-0.52542 1.0044-0.52542s0.86848 0.28846 1.0043 0.52542c0.08739 0.1524 0.13158 1.598 0.16752 5.4804l0.04886 5.2734 5.2734 0.04883c3.8824 0.03595 5.328 0.08013 5.4804 0.16752 0.23696 0.13588 0.52543 0.68728 0.52543 1.0044 0 0.31708-0.28847 0.86848-0.52543 1.0044-0.1524 0.08739-1.598 0.13157-5.4804 0.16752l-5.2734 0.04883-0.04886 5.2734c-0.03593 3.8825-0.08013 5.328-0.16752 5.4804-0.13924 0.24284-0.69152 0.52637-1.0191 0.5232-0.12616-0.0011-0.37408-0.07354-0.55094-0.16071z" fill="currentColor" />
 </g>
</svg>
