<svg width="24.002mm" height="24mm" version="1.1" viewBox="0 0 24.002 24" xmlns="http://www.w3.org/2000/svg">
 <g transform="translate(-85.536 -45.068)">
  <path d="m96.994 68.914c-0.1698-0.08368-0.35966-0.24094-0.42191-0.34946-0.0829-0.14451-0.12573-1.5519-0.16007-5.2603l-0.04688-5.0629-5.0629-0.04688c-3.7275-0.03451-5.1154-0.07693-5.2617-0.16083-0.2275-0.13045-0.50445-0.65984-0.50445-0.96426 0-0.30442 0.27695-0.83381 0.50445-0.96426 0.14632-0.0839 1.5342-0.12632 5.2617-0.16083l5.0629-0.04688 0.04688-5.0629c0.03451-3.7275 0.07694-5.1154 0.16083-5.2617 0.13046-0.2275 0.65984-0.50445 0.96426-0.50445s0.83381 0.27695 0.96426 0.50445c0.0839 0.14632 0.12632 1.5342 0.16083 5.2617l0.04688 5.0629 5.0629 0.04688c3.7275 0.03451 5.1154 0.07693 5.2617 0.16083 0.2275 0.13045 0.50445 0.65984 0.50445 0.96426 0 0.30442-0.27695 0.83381-0.50445 0.96426-0.14632 0.0839-1.5342 0.12632-5.2617 0.16083l-5.0629 0.04688-0.04688 5.0629c-0.03451 3.7275-0.07694 5.1154-0.16083 5.2617-0.13369 0.23315-0.66392 0.50537-0.97844 0.50232-0.12112-0.0011-0.35915-0.0706-0.52894-0.15429z" fill="currentColor" stroke-width=".093758"/>
 </g>
</svg>
