<svg width="63.65mm" height="30.148mm" version="1.1" viewBox="0 0 63.65 30.148" xmlns="http://www.w3.org/2000/svg">
 <g transform="translate(-64.062 -99.171)">
  <path d="m95.147 99.176a2.3812 2.3812 0 0 0-2.0485 0.91881l-1.4123 1.8273a2.3812 2.3812 0 0 0 0.42736 3.3404l8.6785 6.7097h-34.349a2.3812 2.3812 0 0 0-2.3812 2.3812v2.3094a2.3812 2.3812 0 0 0 2.3812 2.3812h38.361a2.3812 2.3812 0 0 0 2.3585-2.1466l15.299 11.829a2.3812 2.3812 0 0 0 3.3404-0.42736l1.4123-1.8268a2.3812 2.3812 0 0 0-0.42736-3.3404l-30.349-23.464a2.3812 2.3812 0 0 0-1.2919-0.49144zm-28.704 23.07a2.3812 2.3812 0 0 0-2.3812 2.3812v2.3094a2.3812 2.3812 0 0 0 2.3812 2.3812h38.361a2.3812 2.3812 0 0 0 2.3812-2.3812v-2.3094a2.3812 2.3812 0 0 0-2.3812-2.3812z" fill="currentColor" fill-rule="evenodd"/>
 </g>
</svg>
