<svg width="10.592mm" height="10.611mm" version="1.1" viewBox="0 0 10.592 10.611" xmlns="http://www.w3.org/2000/svg">
 <g transform="translate(-73.231 -114.95)">
  <path d="m73.273 125.47c-0.0791-0.0874-0.07436-0.11395 0.26173-1.4658l0.34229-1.3768 5.8916-5.8911 2.2648 2.2648-5.8904 5.8909-1.3475 0.33459c-0.74111 0.18402-1.3687 0.33409-1.3947 0.33348-0.02598-6.5e-4 -0.08349-0.0412-0.1278-0.0901zm8.2863-8.2806-1.1209-1.1215 0.45247-0.45803c0.48831-0.49433 0.68012-0.6129 1.0538-0.65147 0.42061-0.0434 0.62345 0.0608 1.1836 0.60809 0.57219 0.55906 0.69526 0.76636 0.69444 1.1697-8.15e-4 0.39188-0.10875 0.58038-0.63622 1.111-0.2536 0.25508-0.47128 0.46379-0.48372 0.46379-0.01244 0-0.52702-0.50468-1.1435-1.1215z" fill="currentColor" stroke-width=".043144"/>
 </g>
</svg>
