<svg width="24mm" height="24mm" version="1.1" viewBox="0 0 24 24" xmlns="http://www.w3.org/2000/svg">
 <g transform="translate(-33.657 -16.157)">
  <path d="m41.615 40.049c-1.1335-0.44598-1.7043-0.74469-2.6417-1.3825-0.65164-0.44342-1.128-0.85004-1.7847-1.5236-1.1915-1.222-1.992-2.4453-2.6367-4.0291-0.17865-0.43891-0.33112-0.91314-0.5085-1.5816-0.11664-0.43954-0.2563-1.2186-0.29458-1.6432-0.01528-0.16946-0.04439-0.32922-0.0647-0.35504-0.05786-0.07358-0.01335-2.0639 0.0573-2.5616 0.12617-0.88905 0.21159-1.318 0.38856-1.9513 0.05585-0.19984 0.23436-0.74942 0.28022-0.86268 0.0183-0.04519 0.0907-0.23005 0.1609-0.4108 0.20399-0.52524 0.47445-1.0725 0.78827-1.595 0.16048-0.26718 0.29178-0.49404 0.29178-0.50412 0-0.01008 0.19362-0.28124 0.43027-0.60259 0.57899-0.78621 1.5949-1.8288 2.3609-2.4231 0.3131-0.24289 0.5773-0.44161 0.58712-0.44161 0.0098 0 0.23085-0.13476 0.49117-0.29947 0.50906-0.32208 1.0423-0.59967 1.554-0.80904 0.17611-0.07205 0.35623-0.14636 0.40026-0.16514 0.46546-0.19851 1.4343-0.46936 2.0813-0.58183 0.84395-0.14671 1.1179-0.1687 2.1013-0.1687 0.98347 0 1.2574 0.02199 2.1013 0.1687 0.64699 0.11247 1.6159 0.38332 2.0813 0.58183 0.04403 0.01878 0.22414 0.09309 0.40026 0.16514 0.51175 0.20936 1.0449 0.48695 1.554 0.80904 0.26033 0.16471 0.48135 0.29947 0.49117 0.29947 0.0098 0 0.27402 0.19872 0.58712 0.44161 0.76602 0.59425 1.7819 1.6369 2.3609 2.4231 0.23665 0.32134 0.43027 0.59251 0.43027 0.60259 0 0.01008 0.1313 0.23693 0.29178 0.50412 0.31382 0.52247 0.58428 1.0697 0.78827 1.595 0.0702 0.18075 0.1426 0.36561 0.1609 0.4108 0.04585 0.11326 0.22437 0.66285 0.28022 0.86268 0.17698 0.63329 0.26239 1.0623 0.38856 1.9513 0.07064 0.49779 0.11516 2.4881 0.0573 2.5616-0.02031 0.02582-0.04942 0.18558-0.0647 0.35504-0.04266 0.4731-0.18736 1.2577-0.32199 1.7459-0.03739 0.13556-0.08255 0.30194-0.10038 0.36972-0.18527 0.70467-0.70356 1.933-1.1082 2.6265-0.63963 1.0961-1.2192 1.8448-2.1278 2.7489-0.37751 0.3756-0.32025 0.32414-0.79001 0.70995-0.87475 0.71843-1.9012 1.334-2.9574 1.7734-0.78209 0.32541-0.99434 0.36049-1.2249 0.20243-0.2806-0.19239-0.27596-0.15289-0.27604-2.351-8.1e-5 -2.3294-0.01257-2.4492-0.32657-3.1312-0.06473-0.14058-0.18841-0.34745-0.27486-0.4597-0.17804-0.23118-0.19094-0.21565 0.24115-0.29042 1.1438-0.19791 1.625-0.34439 2.3738-0.72266 1.2522-0.63252 2.093-1.7769 2.4426-3.3245 0.21935-0.97119 0.26734-2.386 0.1031-3.0399-0.07398-0.29457-0.16507-0.61445-0.19887-0.69836-0.19526-0.48476-0.56324-1.141-0.74364-1.3261-0.16647-0.17086-0.17637-0.22228-0.09684-0.5031 0.13576-0.47935 0.1812-1.0452 0.12423-1.5469-0.06438-0.56704-0.19849-1.1317-0.32759-1.3792-0.04013-0.07697-0.07125-0.0814-0.42913-0.06105-0.67558 0.03842-1.4684 0.35425-2.4205 0.96422l-0.47364 0.30345-0.40692-0.10096c-1.6724-0.41493-3.5182-0.41519-5.1766-7.45e-4l-0.40692 0.1017-0.47364-0.30345c-0.95207-0.60997-1.7449-0.9258-2.4205-0.96422-0.35787-0.02035-0.38899-0.01592-0.42913 0.06105-0.12909 0.24757-0.2632 0.81221-0.32759 1.3792-0.05708 0.50269-0.01139 1.069 0.1249 1.5481l0.07596 0.26702-0.12138 0.16432c-0.88714 1.201-1.1746 2.2046-1.0759 3.7557 0.10988 1.7256 0.56846 2.9385 1.4529 3.8431 0.80315 0.82141 1.9967 1.3612 3.5079 1.5865 0.18712 0.02789 0.36243 0.06212 0.38958 0.07605 0.03389 0.0174 0.0057 0.07646-0.08982 0.18841-0.23493 0.27524-0.5399 1.0068-0.5399 1.295 0 0.22011-0.72248 0.44795-1.4238 0.44901-0.54367 7.77e-4 -0.87103-0.10671-1.3229-0.43453-0.27549-0.19985-0.47142-0.42539-0.77728-0.89475-0.521-0.79949-1.2074-1.2582-1.8828-1.2582-0.30939 0-0.47741 0.08382-0.47559 0.23727 0.0018 0.14788 0.0766 0.23256 0.45896 0.51929 0.37748 0.28306 0.60283 0.52089 0.84032 0.88683 0.14434 0.22241 0.50054 0.94166 0.50054 1.0107 0 0.05787 0.29722 0.48434 0.44744 0.642 0.37794 0.39668 0.70479 0.5761 1.4137 0.77604 0.27079 0.07637 1.4337 0.07631 1.7691-8.2e-5 0.13649-0.03109 0.27608-0.04554 0.3102-0.0321 0.05404 0.02128 0.06203 0.17679 0.06197 1.2068-8e-5 1.3206-0.01046 1.3794-0.27603 1.5615-0.17843 0.12234-0.42468 0.11692-0.76457-0.0168z" fill="currentColor" stroke-width=".040549"/>
 </g>
</svg>
