<svg width="52.368mm" height="75.215mm" version="1.1" viewBox="0 0 52.368 75.215" xmlns="http://www.w3.org/2000/svg">
 <g transform="translate(-138.41 -42.861)">
  <g transform="translate(62.117 -54.662)" fill="currentColor">
   <path d="m96.119 97.526a1.1151 1.1151 124.6 0 0-0.89301 1.2944v1.0426c0 0.73063 2.42e-4 1.9152-0.0059 2.6458-0.0092 1.09-0.02848 2.2228-0.05317 3.1416-0.01962 0.73028-0.07638 1.9135-0.11269 2.6432a1.1503 1.1503 149.27 0 1-1.3632 0.81031h-13.21a1.3229 1.3229 135 0 0-1.3229 1.3229v5.5955a1.3229 1.3229 45 0 0 1.3229 1.3229h4.9897 7.636a0.89621 0.89621 24.772 0 1 1.2352 0.57001c-0.2776 1.8203-0.42783 2.8218-0.5582 3.5406-0.815 4.4939-2.2959 8.9271-4.1098 12.313-0.34497 0.64389-0.95816 1.6582-1.3629 2.2664-2.2533 3.3857-5.6031 7.076-8.8061 9.7573-1.2246 1.0252-2.3265 2.9387-3.2116 3.802l0.18735 0.16468 20.431-11.957c0.63058-0.36904 1.4183-1.1922 1.7345-1.8508 0.19291-0.40185 0.58753-1.2702 0.86921-1.9443 1.7257-4.1299 3.0311-8.9358 3.6802-13.552 0.10174-0.72347 0.23455-1.9007 0.31747-2.6266a1.0968 1.0968 160.68 0 1 1.3781-0.48326h5.3801 8.026a1.2979 1.2979 45.547 0 1 1.2977 1.3227l-0.0458 2.3962c-0.0139 0.7305-0.036 1.9149-0.0576 2.6452-0.0146 0.49448 0.48219 0.59609 1.1128 0.22706l6.8795-4.0259c0.63058-0.36903 1.1506-1.2604 1.1583-1.991 5e-3 -0.48867 9e-3 -0.9836 0.0122-1.4868 4e-3 -0.73062 4e-3 -1.9152 5e-3 -2.6458l2e-3 -3.3601a1.322 1.322 45.019 0 0-1.322-1.3229h-21.875a1.2974 1.2974 45.558 0 1-1.2972-1.3227l0.0611-3.1412a42530 42530 91.117 0 1 0.0516-2.6453l0.0613-3.1412a1.1558 1.1558 53.748 0 0-0.97355-1.3277c-2.9066-0.0044-5.2474-0.0041-6.545-0.0018-0.38843 6.72e-4 -0.70321 0.0019-0.70309 0.0019z" fill="#000000"/>
   <path d="m114.39 128.58-10.257 6.0028h9.9646a1.1234 1.1234 54.714 0 1 1.0595 1.4971l-9.5578 27.099a0.55887 0.55887 0.033019 0 1-1.0543-6.1e-4l-8.3967-23.895a0.020044 0.020044 20.15 0 0-0.02903-0.0106l-6.2839 3.6776 10.294 28.294a2.2668 2.2668 35.004 0 0 2.1302 1.4918h5.6634a2.2655 2.2655 144.98 0 0 2.1294-1.4922l18.505-50.955-8.4884 4.9677a22.993 22.993 153.61 0 1-2.8374 1.4078l-0.12284 0.0507-0.1015 0.08a22.947 22.947 145.71 0 1-2.6168 1.7847z" fill="currentColor"/>
  </g>
 </g>
</svg>
