<svg width="16.12mm" height="24mm" version="1.1" viewBox="0 0 16.12 24" xmlns="http://www.w3.org/2000/svg">
 <g transform="matrix(.23755 0 0 .23755 -17.955 -15.789)">
  <circle cx="97.117" cy="134.94" r="2.4894"/>
  <path d="m101.25 166.64c-2.1302-0.5571-4.2743-2.2959-5.3166-4.3114-0.24846-0.48047-0.50765-1.6549-0.57598-2.6099-0.11242-1.5713-0.0605-1.8103 0.54617-2.5156 0.55977-0.65077 0.86943-0.77938 1.8766-0.77938 1.529 0 2.1725 0.60444 2.6761 2.5135 0.47183 1.7886 1.0632 2.3779 2.6817 2.6725 1.6426 0.29898 2.4777 1.1817 2.4777 2.6192 0 2.0092-1.8968 3.0567-4.3656 2.4111zm32.705-0.11759c-2.6591 7e-5 -1.3367-4.9393 1.3194-4.9393 1.3394 0 2.6202-1.3059 2.6202-2.6714 0-1.3393 1.3059-2.6202 2.6714-2.6202 0.90987 0 2.0023 0.73435 2.3534 1.582 0.65573 1.5831-0.19184 4.559-1.8297 6.4244-1.6614 1.8923-4.9664 2.2244-6.7468 2.2245zm-51.408-30.845c-0.68202-0.26872-1.6572-0.74643-2.1671-1.0616-1.4931-0.92279-3.5144-3.3313-4.1809-4.9819l-0.61399-1.5205v-53.71l0.83728-1.7673c1.1654-2.4598 2.9337-3.5582 5.0734-5.182l1.9994-0.98814h35.746l1.5305 0.61774c2.1433 0.86508 4.1143 3.2609 5.5424 5.2879l0.86458 1.7563v54.515l-0.7783 1.5875c-0.99325 2.0259-3.0166 4.0493-5.0425 5.0425l-1.5875 0.7783-17.992 0.0575c-16.948 0.0542-18.064 0.0291-19.232-0.4311zm36.886-5.3881c0.81041-0.47638 1.508-1.174 1.9844-1.9844l0.73464-1.2497 0.0779-15.685c0.0506-10.183-0.0197-34.205-0.20049-35.183-0.33778-1.8272-1.6173-2.7044-2.9355-3.9727l-1.1753-0.60165-33.602 0.14496-1.01 0.6279c-0.5555 0.34534-1.1581 1.2704-1.7198 1.7002l-0.70979 1.0723-0.0725 34.812-0.0725 16.821 0.60164 1.1753c0.76701 1.4983 2.1619 2.6066 3.6597 2.9076 0.64643 0.12993 8.3786 0.21693 17.183 0.19332l16.007-0.0429zm-20.33-5.3097c-0.63894-0.5496-0.76344-0.85833-0.76344-1.8931 0-1.0267 0.12593-1.3448 0.74235-1.875 0.71066-0.61128 0.9056-0.63855 4.5641-0.63855 2.1019 0 3.8217-0.0853 3.8217-0.18958 0-0.10427-2.1938-2.3962-4.8752-5.0932-2.9476-2.9648-4.9444-5.1825-5.0501-5.6088-0.2299-0.92669 0.49208-2.4384 1.3516-2.83 0.36364-0.16569 1.0356-0.30125 1.4932-0.30125 0.72672 0 1.4759 0.64081 5.921 5.0648l5.089 5.0648 0.1716-8.0599 0.74236-0.63792c1.0072-0.86554 2.5359-0.86517 3.5424 7.9e-4l0.74236 0.63877v5.6451c0 5.6079 0.38295 7.9816-0.3191 9.3125-0.7513 1.4236-0.71552 0.88261-2.1571 1.6695-0.75197 0.41045-3.6235 0.23127-8.5343 0.30364l-5.7188 0.0843-0.76344-0.65668zm40.144 10.57c-2.2938-1.2713-1.3341-4.9224 1.2938-4.9224 1.3406 0 2.6458 1.2926 2.6458 2.6202 0 1.9863-2.1951 3.2691-3.9396 2.3022zm-0.47739-10.588c-0.61643-0.53023-0.74236-0.8483-0.74236-1.875 0-1.5815 0.93202-2.5135 2.5135-2.5135s2.5135 0.93202 2.5135 2.5135-0.93202 2.5135-2.5135 2.5135c-0.70612 0-1.2617-0.20029-1.7712-0.63855zm0.0643-10.54c-0.44819-0.39351-0.75744-1.0316-0.9123-1.8824-0.29459-1.6185-0.88391-2.2098-2.6725-2.6817-1.9091-0.50361-2.5135-1.1471-2.5135-2.6761 0-1.0072 0.12861-1.3168 0.77938-1.8766 0.70533-0.60669 0.94436-0.65859 2.5156-0.54616 1.9602 0.14025 3.0086 0.59868 4.5465 1.9882 1.592 1.4383 2.4445 3.2787 2.4624 5.3158 0.0134 1.5171-0.0556 1.7366-0.72761 2.3151-0.98454 0.84763-2.5402 0.86723-3.478 0.0438zm0.67093 33.82c-2.2938-1.2713-1.3341-4.9224 1.2938-4.9224 1.3406 0 2.6458 1.2926 2.6458 2.6202 0 1.9863-2.1951 3.2691-3.9396 2.3022zm-43.392 1.0583c-2.2938-1.2713-1.3341-4.9224 1.2938-4.9224 1.3406 0 2.6458 1.2926 2.6458 2.6202 0 1.9863-2.1951 3.2691-3.9396 2.3022z" fill="currentColor" stroke-width=".26458"/>
  <circle cx="112.83" cy="164.96" r="2.4894"/>
  <circle cx="123.05" cy="165.01" r="2.4894"/>
 </g>
</svg>
