<svg width="37.591mm" height="50mm" version="1.1" viewBox="0 0 37.591 50" xmlns="http://www.w3.org/2000/svg">
 <g transform="translate(-106.13 -18.692)">
  <path d="m120.55 68.57c-6.8014-1.2187-12.071-6.0195-13.881-12.645-0.39257-1.4378-0.43503-2.1357-0.5106-8.3949-0.0453-3.7547-0.0277-7.0427 0.0379-7.3066 0.23575-0.93927 0.78017-1.254 2.1688-1.254h1.2741v-2.8281c0-4.6033 0.51694-7.0823 2.0412-9.7896 1.9444-3.4531 5.5669-6.2312 9.5239-7.3037 1.7553-0.47573 5.6933-0.47573 7.4485 0 3.9569 1.0724 7.5796 3.8506 9.5238 7.3037 1.5243 2.7072 2.0413 5.1862 2.0413 9.7896v2.8281h1.2741c1.3886 0 1.933 0.31475 2.1686 1.254 0.0663 0.26394 0.0834 3.5519 0.0379 7.3066-0.0757 6.2592-0.11802 6.9571-0.51058 8.3949-1.6306 5.9707-5.9442 10.375-11.929 12.179-1.5834 0.47738-2.053 0.5246-5.7427 0.57756-2.2103 0.03178-4.4454-0.0188-4.9671-0.11234zm5.6523-8.4398c0.34833-0.34774 0.40003-0.70131 0.45649-3.1215l0.0637-2.7293 0.81834-0.48143c3.0676-1.8045 3.5657-5.9868 0.99529-8.3561-1.1808-1.0885-2.0617-1.4403-3.6071-1.4403-1.5453 0-2.4264 0.35176-3.6073 1.4403-1.6734 1.5425-2.1345 4.1156-1.0973 6.125 0.55603 1.0773 1.0824 1.6368 2.1073 2.2397l0.83304 0.49001 4e-3 2.4806c2e-3 1.5953 0.091 2.6541 0.24891 2.9668 0.51458 1.0172 1.9541 1.2167 2.7859 0.38625zm10.485-24.444c-4e-3 -3.6922-0.22812-5.0095-1.1927-6.9878-1.0768-2.2086-3.1572-4.3308-5.3337-5.4412-2.1836-1.114-5.6116-1.433-8.2228-0.7652-2.4581 0.62867-4.4094 1.8709-6.0527 3.8534-2.0911 2.5226-2.7102 4.6532-2.7143 9.3409l-4e-3 3.2833h23.522l-4e-3 -3.2833z" fill="currentColor"/>
 </g>
</svg>
