<svg width="21.042mm" height="24mm" version="1.1" viewBox="0 0 21.042 24" xmlns="http://www.w3.org/2000/svg">
 <g transform="matrix(.35502 0 0 .35502 -34.024 -17.945)">
  <path d="m106.71 117.45c-1.7053-0.84981-2.8075-2.2847-3.1885-4.151-0.15374-0.75323-0.99383-10.24-1.8668-21.081-0.87302-10.841-1.6541-20.217-1.7357-20.836l-0.14834-1.1245h51.394l-0.14834 1.1245c-0.0816 0.61847-0.86263 9.9946-1.7356 20.836-0.87302 10.841-1.7131 20.328-1.8668 21.081-0.38093 1.8663-1.4831 3.3012-3.1885 4.151l-1.3991 0.6972h-34.717zm10.171-7.8897c0.43483-0.43483 0.6456-0.93756 0.63785-1.5214-0.0531-3.9961-2.0633-32.467-2.3265-32.95-0.38809-0.71145-1.4553-1.027-2.3762-0.7026-1.3538 0.47691-1.356 0.61131-0.28266 17.434 0.54777 8.5857 1.0032 15.943 1.0121 16.35 0.0204 0.93768 1.1007 2.0385 2.0005 2.0385 0.37704 0 0.97776-0.29225 1.335-0.64943zm9.701 0.28872c0.24894-0.18913 0.57636-0.66934 0.7276-1.0671 0.37825-0.99488 0.37825-32.133 0-33.128-0.72496-1.9068-2.9584-1.9068-3.6834 0-0.37825 0.99488-0.37825 32.133 0 33.128 0.34784 0.91489 0.99539 1.411 1.8417 1.411 0.3638 0 0.86514-0.15475 1.1141-0.34388zm10.143-0.28872c0.36501-0.36501 0.65649-0.97336 0.66554-1.3891 9e-3 -0.40679 0.46221-7.7643 1.0074-16.35 0.65711-10.348 0.9099-15.858 0.74981-16.344-0.6535-1.9839-3.3983-1.4945-3.7354 0.666-0.11683 0.74873-2.0257 31.513-2.0119 32.425 9e-3 0.59599 1.2763 1.6416 1.9896 1.6416 0.37704 0 0.97776-0.29225 1.335-0.64943zm-38.768-43.735c-1.3217-0.66405-2.1219-1.986-2.1219-3.5053s0.80023-2.8413 2.1219-3.5053c0.8005-0.40219 1.7551-0.46267 7.3089-0.46302l6.3881-4.2e-4 0.10119-2.0505c0.0851-1.7255 0.22258-2.2312 0.86714-3.1904 0.42127-0.62695 1.3111-1.4604 1.9773-1.8521l1.2114-0.71216h19.315l1.2114 0.71216c0.66626 0.39169 1.5561 1.2251 1.9773 1.8521 0.64456 0.95926 0.78199 1.4649 0.86714 3.1904l0.10119 2.0505 6.3881 4.3e-4c5.5538 3.7e-4 6.5084 0.0608 7.3089 0.46302 2.8322 1.423 2.8322 5.5877 0 7.0106-0.85834 0.43124-2.7235 0.4626-27.511 0.4626s-26.653-0.0314-27.511-0.4626zm37.566-8.3829c0-1.1389-0.41326-2.2515-1.0026-2.6992-0.65723-0.49933-17.446-0.49933-18.103 0-0.58933 0.44774-1.0026 1.5603-1.0026 2.6992v0.90881h20.108z" fill="currentColor" stroke-width=".26458"/>
 </g>
</svg>
