<svg width="38.939mm" height="24mm" version="1.1" viewBox="0 0 38.939 24" xmlns="http://www.w3.org/2000/svg">
 <g transform="translate(-36.412 -45.584)" fill="currentColor">
  <path d="m45.297 69.522c-1.9754-0.05013-2.1638-0.06873-2.5382-0.2506-0.5204-0.25281-0.99209-0.72556-1.2718-1.2747-0.242-0.47506-0.35553-1.4829-0.36545-3.2442l-5e-3 -0.8927h0.55521c0.55217 0 0.55551 0.0016 0.60964 0.27216 0.02995 0.14969 0.05443 0.4842 0.05443 0.74335 0 0.45834 0.0052 0.46839 0.19142 0.36874 0.10528-0.05635 1.8787-1.2011 3.9409-2.5438 5.4469-3.5466 6.9481-4.5012 7.1654-4.5567 0.18288-0.04671 1.2716 0.74057 4.4225 3.1978l0.52256 0.40753 1.6983-1.3586c4.7212-3.7768 5.6141-4.4559 5.8591-4.4559 0.33626 0 0.76172 0.22845 3.8049 2.043 4.0534 2.4169 4.1019 2.4435 4.1911 2.3025 0.0922-0.14561 0.09436-7.2739 3e-3 -10.228-0.06175-1.9987-0.07443-2.1116-0.27877-2.4821-0.30662-0.55601-0.51508-0.60373-3.0848-0.70617-2.8526-0.11372-26.358-0.03783-27.082 0.08745-0.69534 0.12031-0.86211 0.22358-1.0864 0.67275-0.16299 0.32636-0.19776 0.58136-0.24221 1.7766l-0.0519 1.3955h-1.1925l0.0033-0.54433c0.0075-1.2622 0.15537-2.7437 0.30217-3.0276 0.22068-0.42674 0.90438-1.1226 1.3037-1.3269 0.33141-0.16954 0.55933-0.18302 4.1826-0.24748 4.9334-0.08777 17.711-0.08777 22.644 0 3.6342 0.06465 3.8501 0.07749 4.1804 0.24869 0.48397 0.25078 1.1293 0.93844 1.3676 1.4574l0.20002 0.43546 0.02561 9.7785 0.02561 9.7785-0.27941 0.52424c-0.34373 0.6449-0.81908 1.1314-1.3625 1.3946-0.34449 0.16682-0.62052 0.21021-1.6753 0.26335-1.5082 0.07599-23.686 0.06898-26.737-0.0085zm16.366-1.2108 3.2584-0.05315-2.5617-2.0108c-5.1349-4.0306-8.0334-6.2408-8.5471-6.5175l-0.299-0.16102-1.806 1.1658c-4.4532 2.8745-9.2414 6.133-9.2661 6.3059-0.0341 0.23798 0.44415 0.94176 0.7422 1.0922 0.18643 0.09411 0.93132 0.13287 3.2892 0.17115 4.1823 0.06791 11.269 0.07136 15.19 0.0074zm11.27-0.06558c0.22054-0.03203 0.44368-0.15495 0.66493-0.36626 0.48544-0.46363 0.55345-0.90015 0.56294-3.6135l0.0079-2.2504-0.26128-0.20971c-0.31035-0.2491-5.0211-3.0705-6.5755-3.9382-0.73995-0.41306-1.1305-0.58518-1.2193-0.53733-0.18304 0.09864-4.599 3.6416-5.5684 4.4675-0.4398 0.37473-0.78753 0.71494-0.77274 0.75604 0.04007 0.11124 1.8069 1.541 4.6275 3.7446l2.5082 1.9596 1.4099 0.05096c1.4838 0.05363 4.0533 0.01833 4.6159-0.06339zm-31.709-6.1279c-0.15687-0.09564-0.32344-0.27441-0.37014-0.39726-0.04671-0.12285-0.08552-0.97525-0.08626-1.8942-6.58e-4 -0.91897-0.03104-1.7176-0.06733-1.7747-0.0468-0.07361-0.60604-0.11162-1.922-0.13064l-1.856-0.02683-0.25396-0.28442c-0.40108-0.44918-0.31904-1.1477 0.17315-1.4744 0.18935-0.12566 0.52323-0.15769 2.055-0.19718l1.8289-0.04714 0.04355-1.8289c0.0286-1.2008 0.0799-1.8923 0.1494-2.0135 0.05822-0.10153 0.25262-0.25425 0.432-0.33937 0.29153-0.13834 0.36266-0.14186 0.67009-0.03313 0.65104 0.23026 0.68837 0.35315 0.7341 2.4167l0.04039 1.8225 1.8013 0.03256c2.021 0.03653 2.1704 0.07739 2.4138 0.66007 0.11707 0.28018 0.11558 0.34942-0.01484 0.69096-0.07973 0.20877-0.22973 0.42812-0.33334 0.48745-0.12572 0.07199-0.79668 0.12236-2.0173 0.15142l-1.8289 0.04355-0.04991 1.7519c-0.03035 1.0651-0.09154 1.8524-0.1561 2.0083-0.21468 0.5183-0.86363 0.69454-1.3856 0.3763zm15.997-6.3978c-0.85943-0.31641-1.6938-1.0211-2.0566-1.7371-0.42778-0.84419-0.4191-2.1625 0.02018-3.0656 0.42992-0.88384 1.5008-1.6607 2.5681-1.8631 1.2714-0.24112 2.9034 0.60007 3.5183 1.8135 0.30549 0.60286 0.43753 1.5158 0.32437 2.2426-0.18821 1.2089-1.1211 2.2375-2.3572 2.5989-0.5656 0.16539-1.5826 0.17084-2.0173 0.01081zm1.7936-1.2098c0.61422-0.28685 0.95322-0.60011 1.2125-1.1205 0.44122-0.88542 0.20601-1.9619-0.5747-2.6301-0.8842-0.75684-2.4481-0.58883-3.1559 0.33903-0.89791 1.1772-0.46221 2.7544 0.94146 3.408 0.56083 0.26114 1.0228 0.26218 1.5766 0.0035z" />
 </g>
</svg>
