<svg width="39.178mm" height="24mm" version="1.1" viewBox="0 0 39.178 24" xmlns="http://www.w3.org/2000/svg">
 <g transform="translate(-27.089 -32.696)" fill="currentColor">
  <path d="m41.126 56.647c-1.2313-0.19361-2.9651-0.99634-4.1926-1.9411-0.46953-0.36137-1.3601-1.3795-1.7576-2.0093-0.3344-0.52986-0.33544-0.90056-0.0036-1.2785 0.30095-0.34276 0.66905-0.43359 1.0206-0.25181 0.13555 0.0701 0.50876 0.45567 0.82936 0.85683 0.96337 1.2055 2.2674 2.123 3.6216 2.5482 0.44232 0.1389 0.82817 0.18441 1.8392 0.21697l1.2794 0.0412 5.2777-1.4173c8.194-2.2005 9.8378-2.6031 10.843-2.656 0.6363-0.03347 1.0048-0.01058 1.4794 0.0919 0.88334 0.19076 2.0945 0.79936 2.8254 1.4198 1.1129 0.94464 1.9892 2.3422 2.0621 3.2886 0.03692 0.4793 0.02977 0.50224-0.23634 0.75705-0.35225 0.33732-0.72922 0.4018-1.0769 0.18422-0.19387-0.12133-0.36273-0.38181-0.69332-1.0695-0.38872-0.80861-0.50354-0.97123-1.0387-1.471-0.65063-0.60762-1.4551-1.0563-2.2004-1.2273-1.0281-0.23585-1.7821-0.07408-10.645 2.2837-5.6901 1.5138-6.2542 1.6376-7.6367 1.6767-0.61573 0.01741-1.3343-0.0021-1.5968-0.04342zm5.2542-4.7142c-0.3273-0.19956-0.54037-0.62316-0.46484-0.92412 0.08986-0.35804 0.52566-0.72763 1.0313-0.87462 0.43127-0.12537 0.45174-0.14295 0.40337-0.34628-0.38472-1.6171-3.1884-11.916-3.2646-11.993-0.06744-0.06743-0.94701 0.12024-2.562 0.54666-2.7704 0.73147-2.6669 0.68161-2.5314 1.2196 0.18899 0.75056 0.08091 1.1338-0.38821 1.3764-0.32154 0.16628-0.73921 0.14938-0.97949-0.03963-0.34748-0.27332-1.0284-2.4827-0.86139-2.7948 0.28343-0.5296 0.95758-0.73799 11.358-3.5109 6.5726-1.7524 7.3452-1.9458 7.5394-1.8869 0.29201 0.08849 0.52657 0.35764 0.6869 0.78818 0.26602 0.71436 0.57918 1.9706 0.52992 2.1259-0.0262 0.08256-0.17312 0.26028-0.32648 0.39493-0.22723 0.19951-0.34903 0.24482-0.65809 0.24482-0.51602 0-0.68391-0.14359-0.93442-0.79916-0.12974-0.33953-0.26-0.56025-0.33064-0.56025-0.15358 0-2.4007 0.56224-3.8899 0.97326-0.96945 0.26757-1.1748 0.34949-1.143 0.4561 0.02131 0.07147 0.18681 0.72369 0.36782 1.4494 0.80916 3.244 2.6013 9.7844 2.8544 10.417 0.10798 0.26987 0.14781 0.30119 0.33227 0.26132 0.11527-0.02493 0.43618-0.05124 0.71312-0.05849 0.44805-0.01173 0.52704 0.01031 0.71683 0.20011 0.17844 0.17844 0.21329 0.28389 0.21329 0.64529 0 0.46897-0.10426 0.6588-0.43081 0.78442-0.78544 0.30213-7.245 2.0646-7.5647 2.0639-0.08538-1.6e-4 -0.27266-0.07189-0.41617-0.15938zm-13.829-1.5161c-0.52638-0.32095-0.53993-0.38215-0.58409-2.6386l-0.03998-2.0428-2.0391-0.04222c-1.2913-0.02672-2.0978-0.07536-2.199-0.13259-0.55589-0.31416-0.77051-1.0513-0.45403-1.5593 0.30882-0.49577 0.33416-0.50105 2.6131-0.54488l2.0791-0.03998 0.04008-2.0391c0.03436-1.7479 0.06024-2.076 0.18127-2.2976 0.36504-0.66839 1.4261-0.69422 1.8659-0.04543 0.13658 0.20152 0.15583 0.43263 0.1918 2.3031l0.03998 2.0791 2.0791 0.03998c1.8704 0.03597 2.1016 0.05522 2.3031 0.1918 0.63357 0.42942 0.59266 1.4242-0.07662 1.863-0.19461 0.12756-0.45841 0.1475-2.2769 0.17208l-2.0568 0.02781-0.0259 2.055c-0.02291 1.8189-0.04247 2.0803-0.17018 2.275-0.1988 0.30311-0.6008 0.53162-0.93525 0.53162-0.15393 0-0.39487-0.07012-0.53542-0.15582z" />
 </g>
</svg>
