<svg width="78.437mm" height="123.79mm" version="1.1" viewBox="0 0 78.437 123.79" xmlns="http://www.w3.org/2000/svg">
 <g transform="translate(-66.67 -71.425)">
  <path transform="matrix(.26458 0 0 .26458 66.67 71.425)" d="m21 1a20 20 0 0 0-20 20v425.87a20 20 0 0 0 20 20h254.46a20 20 0 0 0 20-20v-425.87a20 20 0 0 0-20-20h-254.46z" fill="none" stroke="currentColor" stroke-width="15.984"/>
  <path d="m96.119 97.526a1.1347 1.1347 123.92 0 0-0.89301 1.3279v1.0091c0 0.73063 2.42e-4 1.9152-0.0059 2.6458-0.0092 1.09-0.02848 2.2228-0.05317 3.1416-0.01962 0.73028-0.07638 1.9135-0.11269 2.6432a1.1503 1.1503 149.27 0 1-1.3632 0.81031h-13.21a1.3229 1.3229 135 0 0-1.3229 1.3229v5.5955a1.3229 1.3229 45 0 0 1.3229 1.3229h4.9897 7.636a0.89621 0.89621 24.772 0 1 1.2352 0.57001c-0.2776 1.8203-0.42783 2.8218-0.5582 3.5406-0.815 4.4939-2.2959 8.9271-4.1098 12.313-0.34497 0.64389-0.95816 1.6582-1.3629 2.2664-2.543 3.821-6.4825 8.0298-10.031 10.739-0.58071 0.44323-1.5214 1.2094-1.7372 1.8945-0.15914 0.50526-0.13371 0.97339-0.06178 1.0909l20.431-11.957c0.63058-0.36904 1.4183-1.1922 1.7345-1.8508 0.19291-0.40185 0.58753-1.2702 0.86921-1.9443 1.7257-4.1299 3.0311-8.9358 3.6802-13.552 0.10174-0.72347 0.23455-1.9007 0.31747-2.6266a1.0968 1.0968 160.68 0 1 1.3781-0.48326h5.3801 8.026a1.2979 1.2979 45.547 0 1 1.2977 1.3227l-0.0458 2.3962c-0.0139 0.7305-0.036 1.9149-0.0576 2.6452-0.0146 0.49448 0.48219 0.59609 1.1128 0.22706l6.8795-4.0259c0.63058-0.36903 1.1506-1.2604 1.1583-1.991 5e-3 -0.48867 9e-3 -0.9836 0.0122-1.4868 4e-3 -0.73062 4e-3 -1.9152 5e-3 -2.6458l2e-3 -3.3601a1.322 1.322 45.019 0 0-1.322-1.3229h-21.875a1.2974 1.2974 45.558 0 1-1.2972-1.3227l0.0611-3.1412a42530 42530 91.117 0 1 0.0516-2.6453l0.0613-3.1412a1.1558 1.1558 53.748 0 0-0.97355-1.3277c-2.6788-0.0041-4.5895-0.0041-5.9255-0.0027-0.7306 7.84e-4 -1.3228 0.0027-1.3226 0.0028z" fill="currentColor"/>
  <path d="m118.09 125.41-10.257 6.0028h9.9646a1.1234 1.1234 54.714 0 1 1.0595 1.4971l-9.5578 27.099a0.55888 0.55888 0.032998 0 1-1.0543-6.1e-4l-8.3967-23.895a0.020044 0.020044 20.15 0 0-0.02904-0.0106l-6.2839 3.6776 10.294 28.294a2.2668 2.2668 35.004 0 0 2.1302 1.4918h5.6634a2.2655 2.2655 144.98 0 0 2.1294-1.4922l18.505-50.955-8.4884 4.9677a22.993 22.993 153.61 0 1-2.8374 1.4078 6.2362 6.2362 142.96 0 0-1.3695 1.0336 12.429 12.429 149.07 0 1-1.4716 0.88185z" fill="currentColor"/>
  <path d="m72.875 151.64 68.038-39.818" fill="none" stroke="#000" stroke-width=".26458"/>
 </g>
</svg>
