<svg width="24mm" height="24mm" version="1.1" viewBox="0 0 24 24" xmlns="http://www.w3.org/2000/svg">
 <g transform="translate(-73.231 -114.95)">
  <path d="m73.327 138.75c-0.17923-0.19769-0.16849-0.25775 0.59306-3.3154l0.77561-3.1141 13.35-13.325 5.1318 5.1228-13.347 13.325-3.0532 0.75681c-1.6793 0.41624-3.1014 0.75568-3.1603 0.7543-0.05887-1e-3 -0.18918-0.0932-0.28959-0.20379zm18.776-18.73-2.5398-2.5367 1.0253-1.036c1.1065-1.1181 1.5411-1.3863 2.3878-1.4736 0.95306-0.0982 1.4127 0.13752 2.6819 1.3754 1.2965 1.2645 1.5754 1.7334 1.5735 2.6457-0.0018 0.88639-0.24641 1.3128-1.4416 2.5128-0.57464 0.57697-1.0679 1.049-1.0961 1.049s-1.1942-1.1415-2.5911-2.5367z" fill="currentColor" stroke-width=".097673"/>
 </g>
</svg>
