<svg width="25mm" height="21.396mm" version="1.1" viewBox="0 0 25 21.396" xmlns="http://www.w3.org/2000/svg">
 <g transform="matrix(.40434 0 0 .40434 -29.354 -37.406)">
  <path d="m81.545 145.23c-3e-3 -0.10914-2e-3 -5.3181 3e-3 -11.576l8e-3 -11.377 10.654-10.649c8.2193-8.2161 10.801-10.649 11.301-10.649 0.49911 0 3.0844 2.4346 11.304 10.645l10.657 10.645v23.16h-16.14v-16.933h-11.642v16.933h-8.0698c-4.4384 0-8.0722-0.0893-8.0752-0.19844zm-7.6945-21.043c-1.0963-0.73682-1.5438-2.1272-1.0603-3.2945 0.17494-0.42234 6.355-6.7917 13.733-14.154 12.901-12.873 13.47-13.402 14.852-13.806 0.7904-0.23107 1.751-0.42013 2.1348-0.42013s1.3444 0.18906 2.1348 0.42013c1.382 0.40402 1.9514 0.93336 14.852 13.806 7.3784 7.3624 13.554 13.72 13.722 14.128 0.86978 2.0998-1.1392 4.354-3.3915 3.8053-0.48703-0.11865-5.0592-4.5023-13.828-13.258-7.2052-7.1943-13.278-13.081-13.495-13.081s-6.1684 5.7823-13.226 12.849c-7.0572 7.0672-13.153 13.02-13.546 13.229-1.0114 0.53748-1.8475 0.4724-2.8844-0.22451zm47.715-18.78-3.7669-3.7736v-7.2694h7.6729v7.4083c0 4.0746-0.0313 7.4083-0.0696 7.4083s-1.7647-1.6981-3.8365-3.7736z" fill="currentColor" stroke-width=".26458"/>
 </g>
</svg>
