<svg width="100mm" height="84.804mm" version="1.1" viewBox="0 0 100 84.804" xmlns="http://www.w3.org/2000/svg">
 <g transform="translate(-10.587 -81.538)" fill="currentColor">
  <path d="m108.17 166.33c-0.4298-0.0243-2.1177-0.11966-3.7509-0.21188-13-0.73409-28.181-3.3042-41.495-7.0251-2.7303-0.76308-6.958-1.8263-9.9895-2.5122-1.5288-0.34594-2.8463-0.72837-3.0055-0.87241-0.41396-0.37463-0.52025-1.1792-0.22995-1.7405 0.40143-0.77627 0.92115-0.85228 2.9445-0.43062 2.0629 0.42991 7.4359 1.7533 9.8669 2.4302l1.6963 0.47235 1.7421-0.53712c12.585-3.8803 26.703-6.0656 40.168-6.2172l3.5734-0.0402 0.45102 0.50479c0.69099 0.77334 0.56383 1.6834-0.29597 2.1182-0.30542 0.15446-1.4816 0.24467-4.1761 0.32027-11.832 0.33198-21.861 1.6475-31.883 4.1819-1.7192 0.43476-3.284 0.82613-3.4774 0.8697-0.19341 0.0436-0.35165 0.127-0.35165 0.18539 0 0.10304 2.4179 0.69079 6.0953 1.4817 9.8129 2.1104 20.132 3.4516 31.492 4.0932 1.0753 0.0607 2.0569 0.19795 2.3006 0.32161 0.74894 0.37997 0.94154 1.1021 0.51428 1.9283-0.30641 0.59253-0.83431 0.75639-2.1898 0.67973zm-64.482-11.523c-0.12005-0.11501-6.5926-1.0255-10.068-1.4162-6.0226-0.67716-14.031-1.1742-18.96-1.1768-2.9639-2e-3 -3.3132-0.0642-3.8153-0.68401-0.59912-0.73963-0.10031-1.9729 0.89944-2.2239 0.54459-0.13668 10.456 0.19756 14.521 0.4897 5.7546 0.41356 11.264 1.0464 16.42 1.886 2.1763 0.3544 2.3751 0.41528 2.7741 0.84939 0.57979 0.63082 0.5704 1.2838-0.02705 1.8813-0.34916 0.34915-0.6009 0.45684-1.068 0.45684-0.33612 0-0.64043-0.0281-0.67625-0.0624zm14.626-5.8019c-5.4065-0.70146-11.143-3.1932-15.566-6.7616-1.6524-1.3332-4.4046-4.2404-5.5897-5.9047-1.1331-1.5913-1.6228-2.41-2.8349-4.7406l-0.85959-1.6527-1.5029-0.23907c-1.6214-0.25793-1.8774-0.38741-2.172-1.0986-0.15299-0.36935-0.15154-0.56153 0.0072-0.94465 0.29801-0.71947 0.7966-0.97848 1.7139-0.89034 0.42684 0.041 0.80604 0.0446 0.84268 8e-3 0.03664-0.0366-0.06812-0.53608-0.23278-1.1099-0.93588-3.2612-1.2012-8.489-0.62811-12.374 0.31946-2.1655 1.1018-5.1495 1.8017-6.8719l0.3951-0.97236-0.37108-1.4308c-0.20409-0.78691-0.55965-2.1256-0.79014-2.9749-0.48346-1.7815-0.44073-2.4559 0.18143-2.8636 0.53497-0.35052 1.4176-0.31305 1.8074 0.07674 0.17015 0.17015 0.50223 0.96025 0.73796 1.7558 0.42603 1.4377 0.43019 1.4442 0.69284 1.0731 2.4926-3.5218 4.1205-5.3785 6.3914-7.2901 2.3153-1.949 4.7499-3.4765 5.5408-3.4765 0.65971 0 1.2917 0.66541 1.2917 1.36 0 0.75633-0.21222 1.0692-1.0578 1.5597-6.9362 4.0231-11.906 11.102-13.58 19.346-0.36791 1.8114-0.41387 2.3934-0.41387 5.2416 0 2.8579 0.04498 3.4233 0.4165 5.2357 0.87827 4.2843 2.2517 7.6164 4.4451 10.784 1.0148 1.4655 2.6777 3.5165 2.8511 3.5165 0.06645 0-0.21581-0.68572-0.62723-1.5238-1.5077-3.0712-2.1878-5.9188-2.305-9.6508-0.08485-2.7014 0.20952-5.0929 0.9034-7.3394l0.32404-1.0491-0.40595-2.2917c-0.22327-1.2604-0.5093-2.7751-0.63562-3.3658-0.12632-0.59077-0.22967-1.3077-0.22967-1.5932 0-0.69226 0.5465-1.3036 1.2679-1.4184 0.47307-0.0753 0.64334-0.0174 1.05 0.35693 0.42513 0.39127 0.51641 0.63022 0.73504 1.924 0.1373 0.81248 0.28492 1.5343 0.32806 1.6041 0.04313 0.0698 0.32987-0.2433 0.6372-0.69578 2.2994-3.3855 5.3082-6.0368 9.0099-7.9393 1.0499-0.53961 1.6983-0.96922 1.761-1.1667 0.31416-0.9908 1.9424-4.1353 2.2176-4.2826 0.59455-0.31819 1.3429-0.20713 1.7968 0.26667 0.52368 0.5466 0.52843 0.99666 0.02262 2.1404-0.21854 0.49415-0.36946 0.92634-0.33538 0.96042 0.03408 0.0341 0.44145-0.0256 0.90528-0.13255 0.95948-0.2213 6.5281-0.27524 8.0679-0.0782l0.97301 0.12455-0.3854-0.82785c-0.21197-0.45531-0.38609-0.98957-0.38693-1.1872-0.0018-0.47482 0.39138-1.219 0.70878-1.3408 0.48041-0.18436 1.2879-0.0962 1.6159 0.17642 0.18101 0.15043 0.73951 1.1745 1.2411 2.2758l0.91199 2.0023 1.1634 0.50574c1.5631 0.67949 3.655 1.9266 4.3876 2.6156 0.76495 0.71951 0.80932 1.3601 0.14053 2.0289-0.6782 0.67819-1.2232 0.61227-2.6837-0.3246-1.4182-0.90976-1.6076-0.95813-1.3768-0.35165 0.32774 0.86107 1.0659 3.76 1.454 5.7103 0.3936 1.9778 0.62183 3.918 0.80824 6.8709 0.05293 0.83809 0.1574 1.5238 0.2322 1.5238 0.15032 0 1.6108-1.7102 1.8632-2.1817 0.18426-0.3443 0.66182-0.52629 1.3311-0.50728 0.65118 0.0185 1.1729 0.65467 1.1729 1.4302 0 1.0739-1.8736 3.2201-3.9066 4.4749l-0.89718 0.55378-0.10308 1.0061c-0.22629 2.2087-1.0769 5.7016-2.0207 8.2973-1.2278 3.377-3.3745 7.2984-5.5263 10.095-0.82207 1.0683-0.75754 1.0954 1.2348 0.51804 7.5594-2.1906 13.302-8.4925 14.818-16.262 0.28786-1.4748 1.0233-2.025 2.1035-1.5736 0.85661 0.35791 0.9678 0.78596 0.6443 2.4804-0.34646 1.8147-1.0355 3.872-1.8684 5.5793-0.35649 0.73065-0.67573 1.3988-0.70943 1.4847-0.13792 0.35184 0.86154-0.70545 1.7729-1.8755 3.8145-4.8972 6.0232-11.029 6.0232-16.723v-1.6181l-1.4729-1.0269c-0.81011-0.56481-1.6189-1.2125-1.7973-1.4393-0.46516-0.59135-0.41719-1.2392 0.13245-1.7889 0.58153-0.58153 1.2167-0.59493 2.0503-0.0432 0.34374 0.22748 0.6546 0.38396 0.69082 0.34775 0.21591-0.21591-0.85907-4.0529-1.724-6.1533-2.3329-5.6657-5.9987-9.9029-11.866-13.715-0.98222-0.63826-1.2632-1.1685-1.016-1.9174 0.21724-0.65823 0.68492-1.0119 1.3381-1.0119 0.99794 0 4.699 2.6423 7.3226 5.2278 0.83304 0.82095 1.5458 1.4926 1.5838 1.4926 0.03804 0 0.06922-0.77904 0.06922-1.7312 0-1.705 0.0069-1.7381 0.45684-2.188 0.5824-0.58241 1.2242-0.60028 1.8755-0.05222l0.48086 0.40462v7.4606l1.088 2.0793c1.2018 2.2968 2.1101 4.5819 2.7199 6.8426 0.51909 1.9244 1.0352 5.5027 1.0363 7.1848l5.9e-4 1.3239 0.97713-0.96845c1.1342-1.1242 1.6572-1.3047 2.4137-0.83336 0.54373 0.33877 0.82588 1.1916 0.5748 1.7374-0.07509 0.16322-1.0983 1.3078-2.2737 2.5435-1.7903 1.8821-2.1541 2.3459-2.2414 2.8578-0.0573 0.33613-0.30766 1.3848-0.55633 2.3303-3.1765 12.079-13.715 21.34-26.135 22.967-2.2066 0.28915-6.2571 0.29095-8.4707 4e-3zm4.4888-3.469c0.49676-0.49157 0.90319-0.9669 0.90319-1.0563 0-0.0894-0.43355-0.36051-0.96344-0.60251-0.52989-0.24199-1.5321-0.81506-2.2271-1.2735-3.5337-2.3308-5.8388-5.235-7.2995-9.1966-0.5744-1.5579-0.52327-2.1584 0.22253-2.6131 0.95886-0.58466 1.8128-0.23854 2.2258 0.9022 0.45293 1.2509 1.2039 2.8556 1.3364 2.8556 0.06884 0 0.24905-0.39302 0.40047-0.87337 0.48144-1.5273 1.5621-2.0471 2.5419-1.2226 0.35361 0.29754 0.48086 0.53779 0.48086 0.90782 0 0.45962-0.52412 2.0679-1.1707 3.5922l-0.25733 0.60668 0.51864 0.54027c0.90366 0.94136 2.9166 2.3674 4.2408 3.0043 2.0962 1.0082 1.8989 1.0696 3.1031-0.96479 0.5734-0.96875 1.2247-2.1298 1.4474-2.58l0.40482-0.81867-1.502-3.4793c-2.8781-6.6668-2.7565-6.3372-2.5588-6.9361 0.19017-0.57621 0.80759-0.99736 1.4622-0.99736 0.73766 0 1.1335 0.61231 2.559 3.9583 0.76269 1.7903 1.4521 3.2552 1.532 3.2555 0.2658 5.9e-4 1.1484-3.818 1.4867-6.4324 0.55733-4.3078 0.25184-9.2714-0.85678-13.921-0.52505-2.2021-1.7748-6.0053-2.0998-6.3901-0.75522-0.89405-6.8562-1.347-9.9501-0.7388-7.2108 1.4176-12.976 6.226-15.681 13.079-0.18665 0.47278-0.52339 1.5629-0.74832 2.4225-0.54976 2.101-0.69749 6.248-0.30338 8.5164 0.14175 0.81589 0.30966 1.5354 0.37314 1.5988 0.06348 0.0635 0.35463-0.32274 0.647-0.85827 0.97817-1.7917 2.6439-3.8418 3.4676-4.2678 0.66968-0.34631 1.2001-0.27352 1.708 0.23441 0.71439 0.71438 0.62542 1.2183-0.42191 2.3895-1.6768 1.8752-2.6899 3.6677-3.3597 5.9443l-0.34682 1.1788 0.76006 1.2195c3.0552 4.9019 7.9763 8.3229 13.561 9.4272 1.5135 0.29926 2.1963 0.40092 3.0753 0.45786 0.27879 0.0181 0.63738-0.22356 1.2894-0.86876zm-13.752-25.624c-0.26187-0.10537-0.66094-0.88888-0.66094-1.2977 0-0.46892 0.79635-2.1535 1.6197-3.4262 0.88272-1.3646 2.8399-3.4324 4.0849-4.3158 2.4309-1.725 4.5315-2.4188 7.6581-2.5297 2.4644-0.0874 2.9091 0.0126 3.2845 0.73852 0.31133 0.60205 0.19433 1.236-0.31674 1.7161-0.3407 0.32007-0.55031 0.35724-2.219 0.39347-2.0198 0.0438-3.4148 0.31316-4.7341 0.9139-1.1749 0.53499-2.0657 1.1055-1.9332 1.2381 0.06041 0.0604 0.45203 0.10984 0.87026 0.10984 0.90804 0 1.7553 0.32303 1.9881 0.75795 0.30581 0.57141 0.20299 1.3436-0.23353 1.7536-0.45828 0.43054-0.74478 0.45054-3.7393 0.26112l-1.8755-0.11864-0.41682 0.66565c-0.22925 0.36611-0.67103 1.1742-0.98172 1.7959-0.31069 0.62163-0.69872 1.2018-0.86228 1.2894-0.30688 0.16423-1.1824 0.1954-1.5325 0.0546zm34.269 28.953c-0.5465-0.5465-0.63547-1.0821-0.28067-1.6896 0.33292-0.57003 0.23811-0.53371 3.2509-1.2454l2.188-0.51682 0.34975-1.3284c0.19237-0.73066 0.4654-1.8313 0.60673-2.4458 0.30864-1.342 0.71799-1.9081 1.466-2.0275 0.41798-0.0667 0.65121-5e-3 0.98847 0.25992 0.7065 0.55573 0.78261 0.96733 0.42196 2.2819-0.52299 1.9063-0.51894 1.9116 0.88855 1.1524 2.9084-1.5688 5.8803-4.0476 7.7999-6.506 0.54855-0.70248 1.1086-1.32 1.2447-1.3722 0.57955-0.2224 1.191-0.0875 1.6404 0.36193 0.82551 0.82552 0.53536 1.605-1.4035 3.7706-0.52408 0.58535-0.95287 1.1044-0.95287 1.1535 0 0.0491 0.5649 0.0892 1.2553 0.0892 1.5049 0 2.2723 0.27229 2.507 0.88948 0.26375 0.6937 0.0465 1.4242-0.52778 1.7743-0.45117 0.2751-0.80275 0.3046-3.6362 0.30512l-3.1367 5.9e-4 -1.3175 0.87266c-3.0674 2.0317-7.1198 3.6904-10.654 4.3608-1.7623 0.3343-2.2487 0.30894-2.6983-0.14065zm0.36465-25.455c-0.28849-0.26736-0.43139-0.63744-0.56983-1.4758-0.41156-2.4921-1.7331-5.7261-3.3313-8.1524-1.044-1.5848-1.0108-2.4552 0.11151-2.9241 0.45599-0.19053 0.6098-0.19182 1.0479-9e-3 0.94405 0.39445 3.0985 4.0793 4.1261 7.0571 0.43739 1.2675 0.98687 3.7888 0.98687 4.5283 0 1.1527-1.5098 1.774-2.3712 0.97571zm-64.755-25.579c-0.39779-0.16281-0.7926-0.61331-0.92849-1.0594-0.06188-0.20314 0.0614-0.97608 0.29664-1.8599 0.22138-0.83176 0.37646-1.5383 0.34463-1.5702-0.03184-0.03184-0.41693 0.01914-0.85576 0.11323-0.62514 0.13407-0.89199 0.126-1.2326-0.03727-0.57099-0.27367-0.88553-0.94555-0.75883-1.6209 0.12008-0.64008 0.51463-0.94084 1.6497-1.2576 3.3218-0.92685 3.0207-0.77427 3.7718-1.9112 0.37534-0.5681 1.2887-1.6664 2.0297-2.4406 1.2817-1.3392 1.3795-1.4077 2.0093-1.4077 0.83711 0 1.4103 0.5785 1.4103 1.4234 0 0.46734-0.15523 0.71533-0.99727 1.5932-2.1152 2.2053-3.8198 5.0904-4.4925 7.6039-0.5085 1.8999-0.59124 2.0675-1.1515 2.3334-0.57638 0.2735-0.64946 0.28002-1.0951 0.09765zm9.0523-0.92838c-0.26473-0.16143-0.57153-0.51128-0.68178-0.77746-0.17713-0.42764-0.16072-0.56019 0.14108-1.1392 1.2088-2.3191 4.776-5.8399 8.1722-8.066 0.8381-0.54933 1.5238-1.026 1.5238-1.0592 0-0.03324-0.2894-0.13837-0.64312-0.23362-0.9064-0.24407-1.3886-0.77252-1.3886-1.5217 0-0.74199 0.63904-1.4429 1.3155-1.4429 0.24134 0 1.3549 0.3254 2.4746 0.7231l2.0358 0.7231 0.7989-0.32672c2.1289-0.87066 5.7254-1.7476 8.3789-2.0431 1.8452-0.20549 4.6489-0.26519 5.1202-0.10903 0.49423 0.16376 0.86902 0.95042 0.75143 1.5772-0.17504 0.93304-0.4936 1.0674-2.8385 1.1974-4.9478 0.27432-8.4909 1.1239-12.41 2.9759-4.0759 1.9258-8.3571 5.4146-10.471 8.533-0.47417 0.6994-1.2341 1.2853-1.6646 1.2834-0.07297-3.13e-4 -0.34926-0.13266-0.61399-0.2941z"/>
 </g>
</svg>
